<?xml version="1.0" encoding="UTF-8"?>
<svg id="Layer_1" data-name="Layer 1" xmlns="http://www.w3.org/2000/svg" viewBox="0 0 804.02 429.9">
  <defs>
    <style>
      .cls-1 {
        fill: #fff;
      }
    </style>
  </defs>
  <path class="cls-1" d="M648.83,185.62h23.13c3.31,0,6,2.69,6,6v25.63c0,3.31-2.69,6-6,6h-40.44c12.59-20.48,17.31-37.63,17.31-37.63Z"/>
  <path class="cls-1" d="M171.38,223.25h-38.87c-3.31,0-6-2.69-6-6v-25.63c0-3.31,2.69-6,6-6h20.69s6.2,18.81,18.17,37.63Z"/>
  <rect class="cls-1" x="55.48" y="95.03" width="56.3" height="214.22" rx="12" ry="12"/>
  <rect class="cls-1" x="692.76" y="95.03" width="56.3" height="214.22" rx="12" ry="12"/>
  <rect class="cls-1" x="0" y="129.99" width="44.67" height="144.67" rx="12" ry="12"/>
  <rect class="cls-1" x="759.35" y="129.81" width="44.67" height="144.67" rx="12" ry="12"/>
  <path class="cls-1" d="M518.18,0c-77.93,0-115.25,66.87-115.25,66.87,0,0-38.09-66.97-116.16-66.84-64.32.11-104.54,40.72-121.04,93.23-9.11,29-4.03,56.14-1.32,69.81,9.64,48.69,38.42,80.45,58.61,102.34,100.97,109.47,169.13,164.31,179.91,164.49,10.64.18,92.31-67.64,176.76-160.84,46.76-51.6,63.44-94.78,63.75-139.29C643.93,59.08,594.43,0,518.18,0ZM562.26,229.18l-77.6-.02c-9.71,24.19-45.69,108.4-48.02,111.38-1.38,1.77-3.27,6.22-10.67,6.22-8.38,0-9.85-4.26-10.67-6.22-11.94-28.69-67.27-208.03-68.89-214.22-.12-.45-.94-1.57-1.85-1.56-1.1.02-2.12,1.75-3.11,4.85-4.2,13.14-25.28,73.74-25.28,73.74-2.68,4.8-2.38,10.17-11.11,10.17h-100c-10.08,0-12-4-12-15.11,0-11.75,5.18-14.42,11.11-13.87h88c6.21-18.03,32.58-101.58,40.44-120.35.86-2.04,5.28-6.67,10.67-6.67,7.84,0,11.73,2.4,13.78,9.33,9.9,33.52,66.93,208.79,68.44,214.22.29,1.04,1.11,3.97,2.5,4.08,1.14.09,2.3-1.74,3.36-4.17,5.94-13.6,19.17-44.78,29.56-71.59,1.65-4.27,3.78-7.26,12.67-9.33h87.78c13.33.67,11.63,7.56,11.71,13.97.08,6.03,1.18,13.36-10.82,15.14ZM583.69,72.55c-.98,22.52-9.07,55.39-38.61,77.34-10.37,7.7-23.41,19.85-55.41,25.19-32.76,5.46-36.1,14.96-35.56,12.74,8.3-34.07,42.98-74.22,72.59-90.37,10.79-5.88,22-16.25,24.59-21.04.75-1.39-8.57,7.69-28.44,15.11-76.15,28.44-81.95,97.02-84.27,85.42-3.85-19.26-12.04-44.71,9.9-76.24,21.04-30.22,60.66-38.14,77.04-42.1,29.27-7.08,56.59-26.43,56.59-26.43-.16,7.39,2.16,26.73,1.57,40.38Z"/>
</svg>