<?xml version="1.0" standalone="no"?>
<!DOCTYPE svg PUBLIC "-//W3C//DTD SVG 20010904//EN"
 "http://www.w3.org/TR/2001/REC-SVG-20010904/DTD/svg10.dtd">
<svg version="1.0" xmlns="http://www.w3.org/2000/svg"
 width="512.000000pt" height="512.000000pt" viewBox="0 0 512.000000 512.000000"
 preserveAspectRatio="xMidYMid meet">

<g transform="translate(0.000000,512.000000) scale(0.100000,-0.100000)"
fill="#000000" stroke="none">
<path d="M503 5100 c-68 -41 -63 159 -63 -2349 0 -1608 3 -2285 11 -2323 36
-176 169 -327 349 -398 l65 -25 1737 -3 c1503 -2 1743 0 1773 12 40 17 75 68
75 109 0 40 -27 92 -58 114 -26 17 -109 18 -1762 23 l-1735 5 -55 31 c-130 73
-181 223 -122 357 29 64 67 103 134 136 l61 31 1851 0 c1742 0 1853 1 1885 18
19 9 44 30 55 45 l21 28 3 1897 c2 1319 -1 1916 -8 1960 -22 131 -101 247
-203 299 -109 55 -27 53 -2082 53 -1867 0 -1901 0 -1932 -20z m3882 -260 c94
-47 90 -19 93 -610 2 -283 0 -1110 -3 -1837 l-7 -1323 -1792 0 c-1913 0 -1835
2 -1933 -48 -23 -12 -45 -22 -48 -22 -3 0 -5 871 -5 1935 l0 1935 1823 -2
1822 -3 50 -25z"/>
<path d="M2482 4229 c-81 -12 -211 -60 -276 -101 -28 -18 -78 -58 -112 -90
l-60 -58 -75 16 c-95 20 -240 14 -329 -15 -185 -59 -334 -205 -408 -399 -23
-59 -26 -82 -27 -197 0 -151 18 -226 82 -334 70 -119 215 -239 329 -272 l44
-13 0 -456 c0 -560 -10 -517 142 -590 129 -62 284 -113 441 -146 154 -32 431
-43 595 -24 140 16 340 67 478 123 189 76 225 101 244 168 6 20 10 220 10 480
l0 446 83 41 c101 50 182 121 240 210 85 130 112 231 105 389 -12 263 -181
481 -445 574 -82 29 -237 36 -326 15 l-69 -16 -68 62 c-156 145 -392 219 -598
187z m240 -279 c242 -75 385 -324 323 -563 -23 -89 -62 -156 -132 -229 -51
-53 -66 -74 -70 -106 -13 -99 96 -174 185 -128 38 20 133 122 177 191 106 166
142 388 90 563 -9 29 -13 57 -9 63 4 8 36 10 89 7 101 -5 177 -39 248 -110
151 -151 147 -392 -10 -545 -30 -29 -57 -53 -61 -53 -4 0 -15 14 -24 30 -37
65 -130 75 -191 20 l-32 -28 -3 -560 -2 -560 -73 -30 c-221 -92 -355 -117
-622 -117 -178 0 -227 3 -320 22 -111 23 -278 75 -347 109 l-38 18 0 396 0
397 67 17 c78 19 164 57 210 92 43 32 59 90 40 136 -35 82 -114 109 -189 65
-163 -95 -362 -68 -487 68 -214 235 -58 617 259 632 41 2 80 0 86 -4 9 -6 7
-27 -7 -78 -23 -88 -24 -186 -4 -226 32 -61 105 -84 169 -54 45 22 65 63 76
152 15 131 53 213 137 296 122 123 302 168 465 117z"/>
<path d="M970 670 c-43 -10 -87 -58 -95 -103 -9 -46 16 -102 57 -127 33 -20
45 -20 1826 -20 l1792 0 36 33 c64 59 54 154 -23 204 -26 17 -109 18 -1793 20
-971 0 -1781 -3 -1800 -7z"/>
</g>
</svg>
