<?xml version="1.0" standalone="no"?>
<!DOCTYPE svg PUBLIC "-//W3C//DTD SVG 20010904//EN"
 "http://www.w3.org/TR/2001/REC-SVG-20010904/DTD/svg10.dtd">
<svg version="1.0" xmlns="http://www.w3.org/2000/svg"
 width="512.000000pt" height="512.000000pt" viewBox="0 0 512.000000 512.000000"
 preserveAspectRatio="xMidYMid meet">

<g transform="translate(0.000000,512.000000) scale(0.100000,-0.100000)"
fill="#000000" stroke="none">
<path d="M3383 5105 c-120 -33 -243 -127 -293 -224 l-22 -44 885 -884 884
-885 44 22 c65 34 151 125 188 202 65 132 66 278 2 414 -25 54 -58 93 -177
215 l-147 148 78 83 c142 151 180 240 173 406 -3 87 -7 105 -40 172 -43 90
-89 146 -161 193 -152 101 -352 106 -510 13 -23 -13 -82 -61 -130 -106 l-88
-83 -147 145 c-99 98 -164 154 -199 172 -109 55 -233 69 -340 41z"/>
<path d="M2554 4812 c-163 -106 -244 -302 -203 -494 29 -134 -6 -95 933 -1034
939 -939 900 -904 1034 -933 198 -42 405 49 507 222 l28 49 -1114 1114 c-613
613 -1117 1114 -1120 1114 -3 0 -33 -17 -65 -38z"/>
<path d="M2227 2892 l-507 -507 335 -335 335 -335 508 508 507 507 -335 335
-335 335 -508 -508z"/>
<path d="M574 2762 c-117 -35 -213 -108 -273 -207 l-34 -57 1115 -1115 1116
-1116 49 28 c172 101 264 311 222 507 -29 133 3 97 -913 1016 -468 470 -870
867 -894 884 -100 70 -267 96 -388 60z"/>
<path d="M235 2028 c-64 -34 -152 -129 -187 -203 -62 -133 -62 -277 1 -411 25
-54 58 -93 177 -215 l147 -148 -87 -93 c-105 -112 -152 -199 -165 -303 -39
-318 216 -572 536 -533 102 12 190 60 301 164 l93 87 148 -147 c122 -119 161
-152 215 -177 136 -64 282 -63 414 2 77 37 168 123 202 188 l22 44 -884 884
c-485 485 -885 883 -888 883 -3 -1 -23 -10 -45 -22z"/>
</g>
</svg>
