<svg version="1.1" id="Layer_1" xmlns="http://www.w3.org/2000/svg" xmlns:xlink="http://www.w3.org/1999/xlink" x="0px" y="0px"
	 width="100%" viewBox="0 0 1024 1024" enable-background="new 0 0 1024 1024" xml:space="preserve">
<path fill="#000000" opacity="1.000000" stroke="none" 
	d="
M381.832306,693.158691 
	C419.838928,726.645386 459.450195,757.559692 499.894409,788.417603 
	C505.551971,780.928223 509.152100,773.073730 512.532104,765.188721 
	C522.432678,742.091980 528.096863,717.896484 530.776917,692.940491 
	C533.791260,664.871277 533.034180,636.780334 531.959229,608.650452 
	C531.253601,590.183105 529.797546,571.698792 530.784180,553.212769 
	C532.232849,526.071228 541.870911,503.281189 566.751404,489.277283 
	C577.976135,482.959503 590.199097,480.046844 603.043213,479.637146 
	C623.356323,478.989197 643.315002,481.002258 662.246277,488.832733 
	C689.314026,500.028595 705.065369,520.815369 711.244751,548.998718 
	C715.568665,568.719421 717.639404,588.691467 715.420471,608.924622 
	C715.153564,611.358521 715.384155,613.846863 715.384155,616.289062 
	C717.214539,616.615051 717.695007,615.293030 718.362854,614.487488 
	C738.429993,590.284241 756.221985,564.606018 769.000854,535.722168 
	C778.709473,513.777954 784.533020,490.948303 785.959656,466.865509 
	C788.226135,428.606171 779.159241,393.819519 755.157288,363.651520 
	C735.080688,338.417175 708.935120,322.512115 676.946960,317.605743 
	C642.767517,312.363251 611.250183,320.732697 581.985474,338.627411 
	C556.810974,354.021027 539.284119,376.438049 524.196167,401.131653 
	C522.545776,403.832672 520.997925,406.598450 519.285706,409.259064 
	C515.170654,415.653656 508.709351,415.829041 504.422791,409.439514 
	C499.505676,402.110138 495.056427,394.467438 490.156525,387.125916 
	C474.019135,362.947266 453.605164,343.548615 426.960632,331.234222 
	C412.041168,324.338867 396.365143,320.147980 380.054535,318.262543 
	C379.414154,318.188477 378.789276,317.980133 378.277649,317.862152 
	C377.531433,316.264679 378.676270,315.547668 379.370331,314.682526 
	C385.629456,306.880859 391.820740,299.020721 396.744934,290.282745 
	C398.492645,287.181458 400.566284,286.411743 404.109314,287.139252 
	C446.658112,295.875702 480.018860,319.103027 507.251862,352.111237 
	C508.597687,353.742462 509.600128,355.794678 511.947968,356.448883 
	C514.004211,355.766479 514.946472,353.898254 516.157410,352.375153 
	C545.489197,315.482117 582.778442,291.089050 629.452148,283.116821 
	C675.928162,275.178314 718.462952,285.976196 755.817932,314.946167 
	C789.253540,340.876556 808.799072,375.727173 817.181763,416.707214 
	C827.295654,466.150970 818.481567,513.273071 797.058289,558.357300 
	C778.428772,597.562500 752.423096,631.680664 723.313110,663.558472 
	C694.598877,695.002747 663.354126,723.740356 629.885925,750.061035 
	C628.655701,751.028564 627.758789,752.669861 625.744385,752.495117 
	C625.109070,750.600586 626.732178,749.812134 627.562439,748.734009 
	C649.655457,720.044006 666.720276,688.798645 675.041992,653.320740 
	C681.647583,625.159302 682.241943,597.007690 672.715515,569.223450 
	C671.606812,565.990112 670.700928,562.619507 667.870789,559.358459 
	C666.650696,570.442017 665.491394,580.791870 664.374878,591.146423 
	C658.934692,641.598450 641.299683,687.259827 610.982178,728.038940 
	C588.588135,758.160461 562.078247,784.343262 534.200500,809.257080 
	C525.252991,817.253174 516.027222,824.912231 506.676971,832.433167 
	C504.212341,834.415527 502.512970,834.881348 499.783875,832.791687 
	C448.721985,793.693726 397.547272,754.717529 349.889832,711.441040 
	C308.035065,673.433838 269.795502,632.248718 240.996414,583.117371 
	C224.441315,554.874390 212.238678,524.943237 206.822632,492.525543 
	C199.215530,446.993530 206.839569,403.779724 227.572250,362.782074 
	C232.409348,353.217010 234.716263,343.529053 234.995285,332.682892 
	C235.672714,306.349213 239.941940,280.618225 254.329498,257.750153 
	C267.498871,236.818253 286.316498,222.368118 308.253876,211.518890 
	C326.995697,202.250031 347.065430,196.572601 366.583740,189.404907 
	C378.446075,185.048691 390.041809,180.096329 401.582642,173.971405 
	C404.355957,182.468597 403.851562,190.888931 403.928955,199.014099 
	C404.072968,214.126541 402.558075,229.185318 399.074982,244.008484 
	C389.142059,286.280884 364.164551,317.367615 328.084656,340.342560 
	C316.683533,347.602600 304.752533,353.908203 292.666107,359.888855 
	C265.253448,373.453400 249.957474,395.841248 243.320877,425.204773 
	C235.418015,460.170898 239.874756,493.849945 252.247726,526.964722 
	C253.808197,531.141113 255.974960,532.823364 260.641937,532.766541 
	C281.970215,532.506592 303.304810,532.527649 324.633820,532.756958 
	C329.102997,532.804993 331.176636,531.114441 332.684967,527.145020 
	C338.420715,512.050293 344.375183,497.037964 350.331543,482.027985 
	C353.071716,475.122742 357.241211,472.366547 363.979828,472.676270 
	C369.826782,472.945007 373.764984,476.123932 375.765717,483.096497 
	C380.762512,500.510590 385.510895,517.995972 390.373962,535.448547 
	C390.986481,537.646606 391.688843,539.819641 392.617645,542.890564 
	C397.064209,523.866028 400.188202,505.538910 403.608795,487.273560 
	C407.092529,468.671143 410.379791,450.031891 413.878326,431.432312 
	C415.159637,424.620453 420.348175,420.271332 426.681824,420.238373 
	C433.440521,420.203217 438.529572,424.496948 440.056610,432.059113 
	C444.230103,452.727325 448.220947,473.432312 452.322601,494.115112 
	C456.619293,515.781555 460.959625,537.439331 465.287231,559.099609 
	C465.443634,559.882446 465.326111,560.796204 466.441071,561.418945 
	C469.748505,555.854431 472.144287,549.860291 474.590179,543.913818 
	C477.808136,536.090332 483.135132,532.147339 491.924042,532.547546 
	C501.208466,532.970215 510.527069,532.642334 520.757019,532.642334 
	C519.480347,539.360107 518.379211,545.473755 517.127380,551.556396 
	C516.724731,553.512634 514.896057,553.274841 513.436035,553.293579 
	C508.770386,553.353455 504.094604,553.531921 499.440704,553.301697 
	C495.903748,553.126770 494.023590,554.539307 492.600677,557.731201 
	C486.566101,571.268188 480.306213,584.704590 474.142334,598.184082 
	C472.317352,602.175049 470.272766,606.004395 466.085815,608.014771 
	C458.321442,611.742737 450.397400,607.259399 448.682587,598.240479 
	C444.681244,577.195557 440.715149,556.143738 436.649292,535.111206 
	C433.717682,519.946289 430.650787,504.807434 427.627960,489.660187 
	C427.547394,489.256409 427.278534,488.890228 426.827423,487.934143 
	C421.590210,516.065002 416.469574,543.582825 411.342957,571.099548 
	C409.701447,579.910156 407.997498,588.709351 406.408234,597.529358 
	C405.026123,605.199524 401.372528,609.074890 395.123718,609.278870 
	C389.300690,609.468933 385.425629,605.916443 383.448212,598.433350 
	C376.525757,572.237000 369.633911,546.032532 362.717346,519.834595 
	C362.425507,518.729126 362.003265,517.658142 361.206818,515.263000 
	C357.939667,523.458618 355.103882,530.575745 352.264954,537.691589 
	C351.278046,540.165222 350.309296,542.646484 349.286957,545.105469 
	C346.618286,551.524292 341.876648,554.455383 334.845642,554.402100 
	C314.181885,554.245544 293.516327,554.310181 272.851532,554.338440 
	C270.596252,554.341492 268.150299,553.766113 266.151001,555.745911 
	C266.499786,558.829407 268.399231,561.230713 269.881958,563.779236 
	C292.109375,601.983398 320.873474,634.923462 352.308075,665.668091 
	C361.834442,674.985352 371.802765,683.850708 381.832306,693.158691 
M328.988861,250.504776 
	C326.963043,251.965805 324.943298,253.435410 322.910431,254.886581 
	C288.178406,279.680115 262.508484,311.824432 245.401962,350.826813 
	C241.898865,358.813782 239.376389,367.164154 240.092010,376.429352 
	C265.299774,324.002289 298.358398,277.838745 345.101929,242.255951 
	C338.915863,243.409897 334.450928,247.121796 328.988861,250.504776 
z"/>
<path fill="#000000" opacity="1.000000" stroke="none" 
	d="
M639.914917,463.214111 
	C609.821960,474.465057 578.054565,454.622589 577.860107,419.793610 
	C577.730957,396.654388 594.898071,377.525208 618.074219,374.932220 
	C637.912598,372.712646 659.353333,384.111511 666.263733,408.450012 
	C672.755005,431.312164 662.341003,453.072906 639.914917,463.214111 
z"/>
</svg>