<?xml version="1.0" standalone="no"?>
<!DOCTYPE svg PUBLIC "-//W3C//DTD SVG 20010904//EN"
 "http://www.w3.org/TR/2001/REC-SVG-20010904/DTD/svg10.dtd">
<svg version="1.0" xmlns="http://www.w3.org/2000/svg"
 width="512.000000pt" height="512.000000pt" viewBox="0 0 512.000000 512.000000"
 preserveAspectRatio="xMidYMid meet">

<g transform="translate(0.000000,512.000000) scale(0.100000,-0.100000)"
fill="#000000" stroke="none">
<path d="M512 4250 c-55 -13 -123 -42 -120 -50 2 -5 452 -335 1000 -733 751
-546 1010 -729 1050 -743 73 -25 177 -23 248 5 38 15 362 245 1045 741 545
397 991 725 993 729 2 5 -23 20 -55 33 l-58 23 -2035 2 c-1119 0 -2050 -2
-2068 -7z"/>
<path d="M130 2533 c0 -1089 2 -1256 15 -1308 45 -172 179 -305 352 -350 86
-23 4040 -23 4126 0 178 46 321 193 356 367 8 37 10 432 9 1295 l-3 1242
-1120 -814 c-774 -563 -1137 -821 -1175 -836 -71 -28 -175 -30 -248 -5 -41 14
-325 216 -1170 830 -614 447 -1123 815 -1129 820 -10 6 -13 -245 -13 -1241z"/>
</g>
</svg>
