<?xml version="1.0" standalone="no"?>
<!DOCTYPE svg PUBLIC "-//W3C//DTD SVG 20010904//EN"
 "http://www.w3.org/TR/2001/REC-SVG-20010904/DTD/svg10.dtd">
<svg version="1.0" xmlns="http://www.w3.org/2000/svg"
 width="512.000000pt" height="512.000000pt" viewBox="0 0 512.000000 512.000000"
 preserveAspectRatio="xMidYMid meet">

<g transform="translate(0.000000,512.000000) scale(0.100000,-0.100000)"
fill="#000000" stroke="none">
<path d="M2460 5114 c-240 -44 -432 -184 -535 -392 -50 -102 -69 -182 -69
-297 -1 -137 18 -219 73 -330 l47 -94 -350 -3 c-348 -4 -352 -4 -439 -31 -346
-107 -579 -364 -656 -722 -6 -27 -95 -525 -198 -1105 l-187 -1055 -1 -160 c0
-138 3 -171 23 -240 46 -159 131 -302 253 -424 104 -103 258 -189 419 -233
l85 -23 1635 0 1635 0 85 23 c161 44 315 130 419 233 122 122 207 265 253 424
20 69 23 102 23 240 l-1 160 -187 1055 c-103 580 -192 1078 -198 1105 -77 358
-310 615 -656 722 -87 27 -91 27 -435 31 -192 2 -348 6 -348 10 0 4 20 46 44
94 52 105 71 189 70 323 -1 307 -202 571 -509 667 -59 18 -241 32 -295 22z
m234 -321 c311 -109 366 -535 92 -717 -294 -195 -679 50 -625 397 26 166 163
308 326 337 58 10 153 3 207 -17z m1119 -1109 c140 -31 293 -132 369 -242 40
-58 83 -147 98 -201 6 -23 99 -538 206 -1144 204 -1158 209 -1194 179 -1312
-63 -250 -263 -433 -516 -474 -89 -15 -3089 -15 -3178 0 -142 22 -247 77 -352
181 -111 111 -179 272 -179 428 0 53 56 395 194 1177 107 606 200 1121 206
1144 43 159 162 305 311 384 147 78 70 73 1402 74 1058 1 1196 -1 1260 -15z"/>
<path d="M1580 2627 c-83 -44 -80 -20 -80 -628 l0 -536 23 -33 c36 -54 68 -72
127 -72 56 0 87 16 124 66 19 25 21 46 26 218 l5 191 215 -222 c118 -123 228
-230 245 -238 69 -36 167 -6 199 61 21 45 20 114 -2 147 -9 14 -100 112 -202
218 -102 105 -186 196 -188 201 -2 5 81 95 183 200 102 106 195 206 206 223
52 86 -1 205 -98 223 -76 14 -97 -1 -337 -249 l-226 -232 0 183 c0 216 -9 245
-83 281 -55 27 -84 26 -137 -2z"/>
<path d="M3026 2634 c-163 -39 -291 -158 -348 -323 -21 -62 -23 -82 -23 -306
0 -202 3 -249 18 -297 95 -308 439 -444 714 -283 63 38 139 119 172 184 51
100 63 159 59 289 -3 102 -6 121 -25 148 -41 57 -75 66 -248 62 -137 -3 -157
-5 -181 -24 -70 -52 -89 -117 -55 -186 30 -61 63 -82 138 -86 69 -5 74 -11 48
-62 -60 -116 -244 -119 -310 -6 -25 42 -25 47 -25 255 0 238 5 261 66 308 79
59 161 50 250 -27 60 -53 100 -67 159 -56 46 9 102 65 111 111 12 67 -3 104
-70 170 -122 123 -284 169 -450 129z"/>
</g>
</svg>
