<?xml version="1.0" standalone="no"?>
<!DOCTYPE svg PUBLIC "-//W3C//DTD SVG 20010904//EN"
 "http://www.w3.org/TR/2001/REC-SVG-20010904/DTD/svg10.dtd">
<svg version="1.0" xmlns="http://www.w3.org/2000/svg"
 width="512.000000pt" height="512.000000pt" viewBox="0 0 512.000000 512.000000"
 preserveAspectRatio="xMidYMid meet">

<g transform="translate(0.000000,512.000000) scale(0.100000,-0.100000)"
fill="#000000" stroke="none">
<path d="M345 4956 c-81 -20 -146 -57 -211 -121 -179 -177 -179 -451 1 -630
105 -105 244 -151 386 -127 39 7 84 19 100 28 17 8 37 14 45 12 13 -3 654
-576 654 -585 0 -2 -24 -54 -54 -116 -61 -125 -95 -222 -122 -347 -27 -121
-27 -449 0 -569 54 -250 177 -495 337 -674 l52 -59 -380 -380 -380 -380 -48
16 c-262 90 -541 -80 -587 -358 -48 -292 221 -558 513 -508 233 40 393 240
376 472 -3 41 -13 95 -22 120 l-16 44 390 390 390 390 38 -23 c76 -45 220
-111 310 -140 162 -53 249 -66 448 -65 194 0 301 17 452 68 l73 25 54 -97
c204 -366 198 -353 176 -367 -23 -14 -71 -128 -82 -195 -32 -187 71 -388 243
-471 180 -88 374 -55 515 85 180 180 180 452 0 632 -94 94 -227 144 -350 131
l-53 -5 -117 209 c-64 115 -116 211 -116 214 0 2 37 32 83 68 101 79 228 210
293 304 l50 70 217 -120 217 -121 0 -52 c0 -178 100 -342 253 -417 176 -86
373 -52 513 87 254 255 121 687 -234 756 -113 23 -238 -5 -342 -75 l-50 -34
-220 122 c-191 106 -220 125 -215 142 45 159 67 266 74 368 18 272 -30 521
-144 748 -20 39 -34 76 -33 80 2 5 86 80 187 167 l185 158 60 -24 c80 -33 190
-40 276 -18 194 50 339 232 340 428 1 225 -163 416 -388 450 -293 46 -555
-223 -503 -515 7 -39 14 -77 14 -84 2 -10 -60 -65 -296 -267 l-57 -48 -90 85
c-196 187 -432 309 -710 368 -139 30 -399 32 -535 5 -106 -21 -251 -66 -338
-105 -139 -63 -327 -192 -421 -290 l-39 -40 -90 82 c-50 45 -192 174 -316 286
-167 151 -226 210 -224 225 0 12 7 51 14 89 11 54 11 81 1 138 -44 258 -296
426 -547 365z m175 -306 c44 -22 80 -80 80 -127 -1 -52 -35 -110 -79 -132 -52
-27 -96 -26 -145 2 -52 30 -78 79 -73 138 9 111 117 170 217 119z m3965 -300
c141 -68 90 -280 -67 -280 -71 0 -147 73 -148 142 0 59 39 119 95 144 42 19
72 17 120 -6z m-1672 -450 c439 -98 789 -462 873 -908 20 -109 20 -312 0 -417
-46 -234 -150 -430 -321 -601 -304 -305 -757 -411 -1167 -274 -362 121 -644
423 -746 797 -24 90 -26 113 -26 288 0 176 2 197 28 290 123 451 497 779 959
845 92 13 299 3 400 -20z m1927 -2060 c45 -23 80 -81 80 -132 0 -107 -124
-180 -220 -130 -39 21 -80 89 -80 135 0 50 37 107 83 128 54 24 88 24 137 -1z
m-990 -999 c42 -22 80 -83 80 -131 0 -76 -73 -149 -149 -150 -50 0 -108 37
-131 85 -25 52 -25 78 0 130 36 75 127 105 200 66z m-3104 -107 c98 -47 111
-192 22 -255 -72 -52 -179 -25 -217 55 -26 53 -26 79 0 132 34 72 122 102 195
68z"/>
<path d="M2400 3480 l0 -150 150 0 150 0 0 150 0 150 -150 0 -150 0 0 -150z"/>
<path d="M3000 3080 l0 -150 150 0 150 0 0 150 0 150 -150 0 -150 0 0 -150z"/>
<path d="M2093 3055 c-225 -61 -373 -282 -336 -500 54 -317 402 -484 671 -322
255 153 297 494 88 702 -116 115 -274 160 -423 120z m181 -308 c126 -72 86
-258 -59 -275 -59 -6 -118 27 -145 83 -30 62 -23 114 23 164 49 53 119 64 181
28z"/>
<path d="M2950 2420 l0 -150 150 0 150 0 0 150 0 150 -150 0 -150 0 0 -150z"/>
</g>
</svg>
