<?xml version="1.0" standalone="no"?>
<!DOCTYPE svg PUBLIC "-//W3C//DTD SVG 20010904//EN"
 "http://www.w3.org/TR/2001/REC-SVG-20010904/DTD/svg10.dtd">
<svg version="1.0" xmlns="http://www.w3.org/2000/svg"
 width="512.000000pt" height="512.000000pt" viewBox="0 0 512.000000 512.000000"
 preserveAspectRatio="xMidYMid meet">

<g transform="translate(0.000000,512.000000) scale(0.100000,-0.100000)"
fill="#000000" stroke="none">
<path d="M2430 4787 c-30 -13 -95 -47 -144 -75 -410 -243 -904 -411 -1406
-477 -203 -26 -298 -85 -363 -223 l-32 -67 0 -705 c0 -784 1 -795 70 -1067
138 -538 477 -1016 942 -1328 128 -86 915 -521 967 -534 62 -15 143 -14 202 4
59 17 810 432 944 521 545 362 902 924 1007 1584 16 103 18 188 18 820 l0 705
-27 57 c-37 80 -71 122 -132 162 -62 41 -128 59 -291 81 -463 61 -965 236
-1365 475 -119 70 -176 90 -263 90 -52 0 -87 -7 -127 -23z m878 -1489 c64 -16
134 -86 150 -151 16 -60 6 -118 -27 -166 -14 -21 -210 -235 -435 -475 -295
-314 -421 -441 -451 -456 -52 -25 -127 -26 -180 -1 -22 10 -155 121 -295 245
-270 240 -310 287 -310 363 0 124 98 223 222 223 58 0 116 -38 287 -190 90
-80 167 -145 170 -145 4 0 157 160 341 355 183 195 346 364 362 374 27 17 73
32 106 35 7 1 34 -4 60 -11z"/>
</g>
</svg>
