<?xml version="1.0" standalone="no"?>
<!DOCTYPE svg PUBLIC "-//W3C//DTD SVG 20010904//EN"
 "http://www.w3.org/TR/2001/REC-SVG-20010904/DTD/svg10.dtd">
<svg version="1.0" xmlns="http://www.w3.org/2000/svg"
 width="512.000000pt" height="512.000000pt" viewBox="0 0 512.000000 512.000000"
 preserveAspectRatio="xMidYMid meet">

<g transform="translate(0.000000,512.000000) scale(0.100000,-0.100000)"
fill="#000000" stroke="none">
<path d="M2380 4954 c-160 -18 -230 -29 -330 -51 -900 -197 -1601 -880 -1820
-1775 -52 -211 -64 -322 -64 -568 0 -246 12 -357 64 -568 324 -1322 1672
-2108 2985 -1740 684 191 1265 700 1544 1351 386 898 203 1915 -473 2626 -87
91 -266 240 -387 321 -306 204 -620 326 -996 385 -93 15 -448 28 -523 19z
m381 -324 c718 -73 1344 -506 1663 -1151 417 -843 210 -1873 -499 -2486 -764
-660 -1883 -683 -2665 -55 -888 714 -1038 1998 -338 2903 427 552 1141 859
1839 789z"/>
<path d="M3620 3509 c-14 -5 -366 -350 -782 -767 l-758 -757 -282 282 c-306
304 -307 305 -395 288 -51 -9 -109 -70 -118 -124 -14 -83 -7 -92 359 -459 187
-189 353 -350 368 -358 35 -18 101 -18 136 0 15 8 399 387 854 843 895 897
851 847 834 938 -17 91 -127 149 -216 114z"/>
</g>
</svg>
